<!-- Generated by IcoMoon.io -->
<svg version="1.1" xmlns="http://www.w3.org/2000/svg" width="32" height="32" viewBox="0 0 32 32">
<title>github</title>
<path fill="#f8d24e" d="M31.35 15.962c0 8.457-6.856 15.312-15.312 15.312s-15.312-6.856-15.312-15.312c0-8.457 6.856-15.312 15.312-15.312s15.312 6.856 15.312 15.312z"></path>
<path fill="#fcfcfc" d="M15.601 8.165c-4.523 0-8.235 3.712-8.235 8.235 0 3.86 2.708 7.366 6.305 8.235v-2.725c-0.356 0.078-0.684 0.080-1.047-0.027-0.487-0.144-0.882-0.468-1.176-0.962-0.187-0.316-0.519-0.658-0.865-0.633l-0.085-0.961c0.748-0.064 1.395 0.456 1.779 1.101 0.171 0.287 0.367 0.455 0.619 0.53 0.244 0.072 0.505 0.037 0.81-0.070 0.077-0.61 0.356-0.839 0.567-1.16v-0c-2.145-0.32-3-1.458-3.339-2.356-0.45-1.193-0.208-2.683 0.587-3.624 0.015-0.018 0.043-0.066 0.032-0.1-0.364-1.101 0.080-2.012 0.096-2.109 0.421 0.124 0.489-0.125 1.828 0.688l0.231 0.139c0.097 0.058 0.066 0.025 0.163 0.018 0.559-0.152 1.148-0.236 1.728-0.243 0.585 0.008 1.17 0.091 1.752 0.249l0.075 0.008c-0.007-0.001 0.020-0.005 0.065-0.032 1.672-1.013 1.612-0.682 2.060-0.827 0.016 0.097 0.454 1.022 0.094 2.11-0.049 0.15 1.45 1.522 0.619 3.724-0.339 0.899-1.194 2.037-3.339 2.357v0c0.275 0.419 0.605 0.642 0.604 1.507v3.401c3.597-0.869 6.305-4.375 6.305-8.235 0-4.523-3.712-8.235-8.235-8.235v0z"></path>
</svg>
